HIERARCHY
ROOT hip
{
  OFFSET 0 0 0
  CHANNELS 6 Xposition Yposition Zposition Zrotation Yrotation Xrotation
  JOINT abdomen
  {
    OFFSET 0 20.6881 -0.73152
    CHANNELS 3 Zrotation Xrotation Yrotation
    JOINT chest
    {
      OFFSET 0 11.7043 -0.48768
      CHANNELS 3 Zrotation Xrotation Yrotation
      JOINT neck
      {
        OFFSET 0 22.1894 -2.19456
        CHANNELS 3 Zrotation Xrotation Yrotation
        JOINT head
        {
          OFFSET -0.24384 7.07133 1.2192
          CHANNELS 3 Zrotation Xrotation Yrotation
          JOINT leftEye
          {
            OFFSET 4.14528 8.04674 8.04672
            CHANNELS 3 Zrotation Xrotation Yrotation
            End Site
            {
              OFFSET 1 0 0
            }
          }
          JOINT rightEye
          {
            OFFSET -3.6576 8.04674 8.04672
            CHANNELS 3 Zrotation Xrotation Yrotation
            End Site
            {
              OFFSET 1 0 0
            }
          }
        }
      }
      JOINT rCollar
      {
        OFFSET -2.68224 19.2634 -4.8768
        CHANNELS 3 Zrotation Xrotation Yrotation
        JOINT rShldr
        {
          OFFSET -8.77824 -1.95073 1.46304
          CHANNELS 3 Zrotation Xrotation Yrotation
          JOINT rForeArm
          {
            OFFSET -28.1742 -1.7115 0.48768
            CHANNELS 3 Zrotation Xrotation Yrotation
            JOINT rHand
            {
              OFFSET -22.5879 0.773209 7.07136
              CHANNELS 3 Zrotation Xrotation Yrotation
              JOINT rThumb1
              {
                OFFSET -1.2192 -0.487915 3.41376
                CHANNELS 3 Zrotation Xrotation Yrotation
                JOINT rThumb2
                {
                  OFFSET -3.37035 -0.52449 3.41376
                  CHANNELS 3 Zrotation Xrotation Yrotation
                  End Site
                  {
                    OFFSET -1.78271 -1.18214 1.43049
                  }
                }
              }
              JOINT rIndex1
              {
                OFFSET -7.75947 0.938293 5.60832
                CHANNELS 3 Zrotation Xrotation Yrotation
                JOINT rIndex2
                {
                  OFFSET -2.54057 -0.884171 1.56538
                  CHANNELS 3 Zrotation Xrotation Yrotation
                  End Site
                  {
                    OFFSET -1.62519 -0.234802 1.16502
                  }
                }
              }
              JOINT rMid1
              {
                OFFSET -8.24714 1.18213 3.41376
                CHANNELS 3 Zrotation Xrotation Yrotation
                JOINT rMid2
                {
                  OFFSET -3.10165 -0.590103 1.0647
                  CHANNELS 3 Zrotation Xrotation Yrotation
                  End Site
                  {
                    OFFSET -2.48547 -0.328903 0.83742
                  }
                }
              }
              JOINT rRing1
              {
                OFFSET -8.82822 0.546677 1.51678
                CHANNELS 3 Zrotation Xrotation Yrotation
                JOINT rRing2
                {
                  OFFSET -2.60934 -0.819778 -0.0198488
                  CHANNELS 3 Zrotation Xrotation Yrotation
                  End Site
                  {
                    OFFSET -2.33842 -0.294052 0.168128
                  }
                }
              }
              JOINT rPinky1
              {
                OFFSET -8.27202 -0.0477905 -0.4584
                CHANNELS 3 Zrotation Xrotation Yrotation
                JOINT rPinky2
                {
                  OFFSET -1.82734 -0.647385 -0.700984
                  CHANNELS 3 Zrotation Xrotation Yrotation
                  End Site
                  {
                    OFFSET -1.69225 -0.51767 -0.607171
                  }
                }
              }
            }
          }
        }
      }
      JOINT lCollar
      {
        OFFSET 2.68224 19.2634 -4.8768
        CHANNELS 3 Zrotation Xrotation Yrotation
        JOINT lShldr
        {
          OFFSET 8.77824 -1.95073 1.46304
          CHANNELS 3 Zrotation Xrotation Yrotation
          JOINT lForeArm
          {
            OFFSET 28.1742 -1.7115 0.48768
            CHANNELS 3 Zrotation Xrotation Yrotation
            JOINT lHand
            {
              OFFSET 22.5879 0.773209 7.07136
              CHANNELS 3 Zrotation Xrotation Yrotation
              JOINT lThumb1
              {
                OFFSET 1.2192 -0.487915 3.41376
                CHANNELS 3 Zrotation Xrotation Yrotation
                JOINT lThumb2
                {
                  OFFSET 3.37035 -0.52449 3.41376
                  CHANNELS 3 Zrotation Xrotation Yrotation
                  End Site
                  {
                    OFFSET 1.78271 -1.18214 1.43049
                  }
                }
              }
              JOINT lIndex1
              {
                OFFSET 7.75947 0.938293 5.60832
                CHANNELS 3 Zrotation Xrotation Yrotation
                JOINT lIndex2
                {
                  OFFSET 2.54057 -0.884171 1.56538
                  CHANNELS 3 Zrotation Xrotation Yrotation
                  End Site
                  {
                    OFFSET 1.62519 -0.234802 1.16502
                  }
                }
              }
              JOINT lMid1
              {
                OFFSET 8.24714 1.18213 3.41376
                CHANNELS 3 Zrotation Xrotation Yrotation
                JOINT lMid2
                {
                  OFFSET 3.10165 -0.590103 1.0647
                  CHANNELS 3 Zrotation Xrotation Yrotation
                  End Site
                  {
                    OFFSET 2.48547 -0.328903 0.83742
                  }
                }
              }
              JOINT lRing1
              {
                OFFSET 8.82822 0.546677 1.51678
                CHANNELS 3 Zrotation Xrotation Yrotation
                JOINT lRing2
                {
                  OFFSET 2.60934 -0.819778 -0.0198488
                  CHANNELS 3 Zrotation Xrotation Yrotation
                  End Site
                  {
                    OFFSET 2.33842 -0.294052 0.168128
                  }
                }
              }
              JOINT lPinky1
              {
                OFFSET 8.27202 -0.0477905 -0.4584
                CHANNELS 3 Zrotation Xrotation Yrotation
                JOINT lPinky2
                {
                  OFFSET 1.82734 -0.647385 -0.700984
                  CHANNELS 3 Zrotation Xrotation Yrotation
                  End Site
                  {
                    OFFSET 1.69225 -0.51767 -0.607171
                  }
                }
              }
            }
          }
        }
      }
    }
  }
  JOINT rButtock
  {
    OFFSET -8.77824 4.35084 1.2192
    CHANNELS 3 Zrotation Xrotation Yrotation
    JOINT rThigh
    {
      OFFSET 0 -1.70687 -2.19456
      CHANNELS 3 Zrotation Xrotation Yrotation
      JOINT rShin
      {
        OFFSET 0 -36.8199 0.73152
        CHANNELS 3 Zrotation Xrotation Yrotation
        JOINT rFoot
        {
          OFFSET 0.73152 -45.1104 -5.12064
          CHANNELS 3 Zrotation Xrotation Yrotation
          End Site
          {
            OFFSET -1.1221 -3.69964 12.103
          }
        }
      }
    }
  }
  JOINT lButtock
  {
    OFFSET 8.77824 4.35084 1.2192
    CHANNELS 3 Zrotation Xrotation Yrotation
    JOINT lThigh
    {
      OFFSET 0 -1.70687 -2.19456
      CHANNELS 3 Zrotation Xrotation Yrotation
      JOINT lShin
      {
        OFFSET 0 -36.8199 0.73152
        CHANNELS 3 Zrotation Xrotation Yrotation
        JOINT lFoot
        {
          OFFSET -0.73152 -45.1104 -5.12064
          CHANNELS 3 Zrotation Xrotation Yrotation
          End Site
          {
            OFFSET 1.1221 -3.69964 12.103
          }
        }
      }
    }
  }
}
MOTION
Frames:	4
Frame Time:	0.03333
-50.3757 71.0698 21.9841 -176.940754 19.114176 -174.9622 0.686749 9.155585 177.492561 -0.203631 4.795449 -165.01091 -7.366297 15.870147 -46.885354 28.797035 -12.960473 77.479412 -0.004041 0.0 -0.000976 0.001661 -0.0 -0.00153 -105.778372 -86.447965 -128.093288 55.78354 56.230755 -82.117822 -179.469826 -44.598446 24.121405 -144.432815 31.59675 127.328813 -172.113299 -9.794474 89.944131 143.988729 -48.061823 97.823967 140.814678 -74.235554 86.56897 -48.184077 53.683233 38.574252 -4.809513 12.847666 3.020663 -137.768805 45.145768 126.059198 0.006219 1.456667 0.457468 11.161517 -18.113798 -2.209247 -149.769929 27.98468 -145.727084 -6.007577 -17.068851 -8.616033 157.329953 -17.544654 -164.618694 -160.631902 -6.307327 167.872252 -1.873354 -34.818159 -78.103048 8.181502 36.016954 -2.509344 171.211154 -8.894201 -89.951351 16.899632 -42.690062 -4.087121 14.111436 19.07697 -9.47339 162.123993 -11.206396 -110.35534 144.412357 30.905087 -131.968207 155.547196 15.99601 -139.45189 145.056154 6.295521 -178.8878 156.66259 9.781711 -179.565921 152.206811 37.351381 147.583972 -11.425513 28.191396 -4.440655 -179.996005 75.749084 -0.005044 153.272337 42.598485 178.943687 34.407945 -68.100605 141.454875 -29.961621 -45.168631 38.336094 179.998457 75.748626 0.001727 -142.557347 24.262217 34.325828 51.998924 21.309995 57.655183 23.261102 45.214755 -106.9148
-51.2574 71.1071 21.1675 -176.974484 16.111043 -175.624889 0.172338 8.820937 177.172233 -0.51689 4.407678 -164.757679 -2.626521 11.279482 -9.390399 9.080456 -22.864159 38.178115 -0.003937 0.0 -0.002889 0.001876 -0.0 -0.001144 -38.535598 62.3444 41.116573 -118.430879 -26.576244 143.155106 175.800943 36.946384 -57.964855 -20.018322 -48.804253 -13.271674 -173.025436 -10.700512 89.920014 -152.192638 4.43117 79.548478 -113.162723 31.331006 95.752142 -163.447088 -9.89084 116.537283 -144.766306 30.355016 132.261732 22.135492 -49.395563 2.002767 -0.024904 4.652724 1.465019 -155.821106 -1.556698 172.050212 -166.206222 78.304324 -149.271679 -9.907811 -22.987086 -11.098034 157.060237 -15.146456 -164.166022 27.614492 2.495082 15.593097 171.608619 29.762611 121.487113 8.467032 45.20344 -4.771995 -8.16674 -8.159541 0.680479 -17.361018 -37.363811 19.747787 15.819439 20.873766 -10.770299 152.824183 2.628524 -109.161859 174.543859 -47.662784 -144.51827 -18.119635 -42.125523 -0.287035 145.110683 -0.650144 178.924891 150.363064 -34.782603 173.113513 161.370837 69.780218 151.07808 148.432029 11.789864 142.238095 0.013673 -0.000498 0.011997 -19.522599 -24.575544 -73.076646 -68.641038 30.047893 -15.017759 110.640239 38.67427 -8.129847 -0.002979 -9.4e-05 -0.003459 45.062772 -37.268523 -4.073122 -26.448962 46.155474 128.811297 -116.95749 -80.188567 117.987071
-51.791 70.9678 20.6826 -176.729418 12.22468 -176.064671 0.293953 13.54669 -1.114546 0.501758 -8.864393 11.553772 8.588886 13.155426 59.94486 -23.837136 -6.807982 -33.768706 -0.004123 -0.0 0.003588 -0.00428 -0.0 0.001148 -158.373162 -62.83949 174.385451 133.690245 -2.623963 -166.723347 -9.012449 -40.538094 108.39202 -27.202525 -70.231303 -29.632355 1.844703 -1.830208 -0.254762 -129.311297 -24.383299 115.21674 -19.368837 24.29482 13.538479 3.863319 6.753269 0.235759 -157.896907 1.615686 141.792546 8.760887 -16.570108 -1.042503 -0.01241 -1.219267 -0.384385 11.637068 -28.704171 -3.439628 -154.151997 45.053302 -148.89841 11.723434 29.683159 4.746916 -0.547421 -3.422041 0.743568 -52.750582 -3.092531 -21.708636 11.062155 -0.340496 -48.359065 3.915339 34.078609 -3.747827 175.036222 -12.687651 -89.819223 126.569844 14.406093 -61.647227 134.150694 11.063579 -112.029493 167.997078 -22.58656 -118.284406 18.867912 37.51646 -14.250369 21.399695 45.955009 -17.492333 145.120402 2.397064 179.881442 151.815405 -29.193589 174.470527 135.582214 -12.367033 132.959058 152.370224 28.228765 144.996643 -179.98096 75.748967 -0.015906 151.563965 48.814836 98.931518 65.863913 6.129981 -130.691001 52.295383 -9.954446 11.27053 -179.990192 75.75032 -0.006033 -146.248588 20.263165 114.474355 47.772165 -27.724806 146.237676 -48.035657 75.248693 111.892312
-52.304399999999994 70.76679999999999 20.1311 -175.499587 8.01291 -176.434906 -1.419063 11.145689 105.222368 -6.441342 -1.382012 -96.997974 10.630628 22.48452 116.214109 -28.003195 20.814178 -84.451111 0.004278 0.0 0.001011 -0.001444 -0.0 0.001317 -89.732005 67.897802 92.928713 126.09436 -35.471671 61.513205 -168.745639 -34.077448 35.253262 -142.171856 28.939632 129.173557 -2.168066 2.126411 0.37259 -3.3002 4.216066 4.148476 -27.752761 30.860467 20.376075 1.218328 9.39119 0.425652 -5.610058 14.748108 3.580655 36.39313 -66.209653 11.792851 -0.00352 3.157033 0.993848 -156.834979 -33.614901 175.816709 0.359969 0.946907 0.332264 -5.114277 -17.66271 -6.737263 154.010336 5.243874 -159.864801 29.001665 11.286537 7.187067 174.198449 25.804789 140.414339 8.691012 47.098048 -5.064752 8.217039 7.860913 -1.811327 -58.575934 -69.054627 4.767056 153.085274 -20.380862 -121.646048 -0.912727 19.911119 5.326978 163.587874 -15.896259 -144.41501 102.31348 61.970986 -93.312948 145.120553 0.534954 179.295135 -12.100332 41.423928 4.280844 131.244741 -20.17224 128.808365 -14.507147 34.837343 -5.472749 0.000134 -0.000695 0.001646 -16.372075 -21.061868 156.203306 3.615957 -68.194265 -97.793733 -76.61216 -52.229672 -154.11969 -179.994998 75.748357 -0.003057 -147.149823 19.288616 21.712431 48.646243 34.911594 54.423454 -121.49122 -42.782273 118.407648
